:SAMPLES-PER-SECOND 30
:FULLY-SPECIFIED
:DEGREES
350
root  -6.28954 24.0645 -6.9153 21.0264 -63.6533 8.04005
RightUpLeg  -88.9968 -19.258 -8.24797
RightLeg  80.8971 1.98342 8.27037
RightFoot  -3.03859 0.000571386 0.399184
RightToes  -57.064 -0.36704 -0.389948
Spine  28.6606 -0.203945 7.29262
Spine1  44.5491 -1.70229 8.96433
HEad  3.85642 -10.5393 4.1336
LeftShoulder1  0 -2.42657e-020 -4.95415e-022
LeftArm  -0.771572 -54.5539 -108.939
LeftForeArm  49.6471 -28.0904 -5.36824
LeftHand  -0.303181 -14.8894 1.95082
RightShoulder  0 2.42657e-020 1.07489e-018
RightArm  -87.4205 64.7652 34.1783
RightForeArm  23.201 11.5149 2.05826
RightHand  1.64876 22.9884 8.46751
LeftUpLeg  -66.063 5.01762 20.1907
LeftLeg  80.1473 2.4354 9.98291
LeftFoot  -21.3835 -1.50632 -7.96591
LeftToes  -18.4027 8.63562e-007 1.17448e-007
351
root  -6.53222 25.2746 -7.80342 20.7258 -62.4188 8.16422
RightUpLeg  -86.1162 -19.0836 -6.21732
RightLeg  76.801 2.50289 7.91281
RightFoot  -1.24753 -0.000895599 0.295453
RightToes  -55.8334 -0.355644 -0.391783
Spine  27.6299 0.536007 7.15834
Spine1  43.9368 0.153953 8.35013
HEad  5.91855 -6.91133 -0.974843
LeftShoulder1  0 -2.42657e-020 -4.95415e-022
LeftArm  -8.05433 -46.6077 -106.081
LeftForeArm  46.7231 -30.6025 -5.96003
LeftHand  -0.430014 -13.9357 3.14899
RightShoulder  0 2.42657e-020 1.07489e-018
RightArm  -79.9016 59.4763 39.314
RightForeArm  13.2319 19.1033 3.49558
RightHand  1.64518 22.0335 8.80838
LeftUpLeg  -62.1576 8.99871 13.7316
LeftLeg  78.1107 2.91275 10.3102
LeftFoot  -20.0717 -1.27323 -7.18542
LeftToes  -19.256 8.63562e-007 1.17448e-007
352
root  -6.79069 26.4119 -8.7101 21.7009 -58.9949 5.83908
RightUpLeg  -82.0399 -19.2107 -5.25859
RightLeg  73.8982 3.28922 8.84599
RightFoot  2.61247 -0.00921432 0.781438
RightToes  -57.3719 -0.369904 -0.396671
Spine  26.1542 0.380776 7.62886
Spine1  42.7877 0.0749239 8.50611
HEad  7.95172 -1.8314 -5.96514
LeftShoulder1  0 -2.42657e-020 -4.95415e-022
LeftArm  -15.7626 -39.5786 -102.955
LeftForeArm  45.8868 -31.2617 -6.12052
LeftHand  -0.589303 -13.2844 4.68978
RightShoulder  0 2.42657e-020 1.07489e-018
RightArm  -70.5363 53.3998 46.2884
RightForeArm  20.345 29.1388 5.63793
RightHand  1.08758 22.9785 5.71858
LeftUpLeg  -57.7681 11.7671 12.3249
LeftLeg  74.0894 3.3756 9.37404
LeftFoot  -18.5451 -0.99725 -6.10258
LeftToes  -20.6591 8.63562e-007 1.17448e-007
353
root  -7.0701 27.3123 -9.6357 22.5413 -54.6699 3.35106
RightUpLeg  -77.1595 -15.7926 -10.223
RightLeg  72.9811 5.2292 13.3683
RightFoot  7.24141 -0.143395 2.64313
RightToes  -60.0699 -0.395206 -0.398397
Spine  24.3469 -0.156434 7.60026
Spine1  41.3563 -0.175998 6.96458
HEad  9.19389 4.66985 -11.8252
LeftShoulder1  0 -2.42657e-020 -4.95415e-022
LeftArm  -22.7632 -32.6896 -98.3637
LeftForeArm  41.3082 -32.7284 -6.4898
LeftHand  -0.610901 -11.3811 5.75842
RightShoulder  0 2.42657e-020 1.07489e-018
RightArm  -58.9267 48.87 52.8619
RightForeArm  24.6531 39.0641 8.23349
RightHand  0.228459 22.4995 1.51896
LeftUpLeg  -53.8636 12.7476 14.702
LeftLeg  69.7362 4.21577 9.38381
LeftFoot  -16.5169 -0.782496 -5.38731
LeftToes  -19.2475 8.63562e-007 1.17448e-007
354
root  -7.34793 27.6663 -10.455 21.1362 -50.0519 3.17265
RightUpLeg  -71.2762 -11.8769 -18.8599
RightLeg  72.8639 4.32759 11.0291
RightFoot  7.62258 -0.18961 3.2229
RightToes  -57.6546 -0.372538 -0.391724
Spine  22.6312 -0.553915 6.95708
Spine1  39.4806 0.0713571 4.68987
HEad  11.582 9.96562 -14.7306
LeftShoulder1  0 -2.42657e-020 -4.95415e-022
LeftArm  -27.7922 -26.6762 -94.8768
LeftForeArm  34.9621 -33.1423 -6.60135
LeftHand  -0.571319 -9.98522 6.16718
RightShoulder  0 2.42657e-020 1.07489e-018
RightArm  -49.9792 46.1272 55.8795
RightForeArm  38.738 46.2912 10.6407
RightHand  -1.91848 22.3942 -9.30207
LeftUpLeg  -51.1934 12.7089 17.3858
LeftLeg  66.7965 4.60332 8.9815
LeftFoot  -12.6405 -0.479539 -4.32755
LeftToes  -18.7348 8.63562e-007 1.17448e-007
355
root  -7.48564 27.4994 -11.3976 21.245 -45.6615 2.89893
RightUpLeg  -65.8222 -8.26525 -26.9689
RightLeg  70.7498 3.28234 7.53355
RightFoot  3.86475 -0.0835356 2.85258
RightToes  -53.396 -0.33333 -0.377655
Spine  20.8153 -0.0170205 6.19993
Spine1  36.8849 1.80734 3.50312
HEad  11.9702 11.8949 -15.4045
LeftShoulder1  0 -2.42657e-020 -4.95415e-022
LeftArm  -31.0178 -22.882 -93.7088
LeftForeArm  31.9322 -33.0453 -6.57911
LeftHand  -0.463879 -8.86121 5.61584
RightShoulder  0 2.42657e-020 1.07489e-018
RightArm  -46.1358 46.5514 55.1922
RightForeArm  49.9248 48.9932 11.7006
RightHand  -2.69338 21.4295 -13.7982
LeftUpLeg  -52.3132 13.2946 20.2356
LeftLeg  65.8702 3.29442 6.20427
LeftFoot  -7.45908 -0.180579 -2.76973
LeftToes  -21.6954 8.63562e-007 1.17448e-007
356
root  -7.58939 26.8508 -12.321 21.5065 -42.1863 3.61949
RightUpLeg  -60.2463 -4.1641 -35.0964
RightLeg  65.5661 4.0955 7.49194
RightFoot  5.40128 -0.15114 3.58042
RightToes  -62.8851 -0.421953 -0.404961
Spine  19.5007 1.28016 5.07249
Spine1  34.6099 5.01208 2.34894
HEad  10.5537 10.8534 -15.3801
LeftShoulder1  0 -2.42657e-020 -4.95415e-022
LeftArm  -31.29 -20.2611 -92.9192
LeftForeArm  25.9262 -34.9013 -7.06259
LeftHand  -0.352459 -8.14096 4.58371
RightShoulder  0 2.42657e-020 1.07489e-018
RightArm  -43.9231 47.5491 51.127
RightForeArm  47.6268 47.4233 11.0646
RightHand  -3.09152 19.4393 -17.5417
LeftUpLeg  -56.0146 12.891 22.2899
LeftLeg  65.324 -1.01592 -1.89438
LeftFoot  -8.06631 -0.104189 -1.47761
LeftToes  -27.8237 8.63562e-007 1.17448e-007
357
root  -7.94925 25.7659 -13.2064 21.2054 -37.6862 4.03934
RightUpLeg  -52.9094 0.736895 -40.4519
RightLeg  60.4847 4.54441 6.81684
RightFoot  -5.41698 0.0821536 2.11428
RightToes  -73.5148 -0.525014 -0.417736
Spine  19.2352 2.5909 4.19221
Spine1  33.9034 8.27829 1.71532
HEad  9.47717 9.30586 -13.694
LeftShoulder1  0 -2.42657e-020 -4.95415e-022
LeftArm  -30.1555 -20.8025 -91.8074
LeftForeArm  23.8387 -36.8531 -7.59333
LeftHand  -0.320787 -8.27589 4.06527
RightShoulder  0 2.42657e-020 1.07489e-018
RightArm  -46.7319 47.6804 47.0496
RightForeArm  51.9354 42.8394 9.39095
RightHand  -4.02042 20.5455 -21.557
LeftUpLeg  -61.7118 13.9655 22.5234
LeftLeg  65.1529 -2.8681 -5.2718
LeftFoot  -1.26759 -0.0178039 -1.60933
LeftToes  -39.2539 8.63562e-007 1.17448e-007
358
root  -8.38725 24.393 -14.0456 20.7179 -31.2005 3.40797
RightUpLeg  -47.1029 0.846323 -39.0477
RightLeg  60.284 1.09635 1.57274
RightFoot  -19.8536 0.26375 1.88459
RightToes  -66.1523 -0.453354 -0.410921
Spine  19.4745 3.02812 4.34606
Spine1  34.1779 10.3544 1.24664
HEad  9.40282 8.89107 -12.5994
LeftShoulder1  0 -2.42657e-020 -4.95415e-022
LeftArm  -29.5697 -22.66 -90.5697
LeftForeArm  22.8105 -39.6131 -8.39342
LeftHand  -0.338337 -8.01343 4.46135
RightShoulder  0 2.42657e-020 1.07489e-018
RightArm  -48.6235 47.7938 41.9297
RightForeArm  51.6193 35.4447 7.18159
RightHand  -3.50518 21.9672 -17.5533
LeftUpLeg  -69.4256 15.467 21.0724
LeftLeg  66.8661 -1.47593 -2.9308
LeftFoot  6.15419 0.102395 -1.9046
LeftToes  -41.9125 8.63562e-007 1.17448e-007
359
root  -8.55737 22.907 -14.7286 20.2797 -25.0037 2.46198
RightUpLeg  -44.6327 -2.38188 -37.7967
RightLeg  65.6974 -0.438186 -0.95113
RightFoot  -26.1781 0.630035 3.08692
RightToes  -61.3471 -0.4073 -0.401538
Spine  20.1236 3.24482 4.5329
Spine1  35.1585 12.6337 -0.203881
HEad  8.93984 9.5368 -10.9434
LeftShoulder1  0 -2.42657e-020 -4.95415e-022
LeftArm  -28.8779 -24.4599 -88.2633
LeftForeArm  23.0444 -44.8175 -10.101
LeftHand  -0.365195 -7.7511 5.02135
RightShoulder  0 2.42657e-020 1.07489e-018
RightArm  -51.3503 49.8974 35.72
RightForeArm  51.5947 24.946 4.67105
RightHand  -1.60481 23.943 -7.18988
LeftUpLeg  -78.1817 15.5847 18.8568
LeftLeg  71.8764 0.0178689 0.0273031
LeftFoot  6.33484 0.0815896 -1.47431
LeftToes  -27.9586 8.63562e-007 1.17448e-007
